<?xml version="1.0" standalone="no"?>
<!DOCTYPE svg PUBLIC "-//W3C//DTD SVG 20010904//EN"
 "http://www.w3.org/TR/2001/REC-SVG-20010904/DTD/svg10.dtd">
<svg version="1.0" xmlns="http://www.w3.org/2000/svg"
 width="728.000000pt" height="971.000000pt" viewBox="0 0 728.000000 971.000000"
 preserveAspectRatio="xMidYMid meet">
<metadata>
Created by potrace 1.16, written by Peter Selinger 2001-2019
</metadata>
<g transform="translate(0.000000,971.000000) scale(0.100000,-0.100000)"
fill="#000000" stroke="none">
<path d="M4665 9480 c-12 -4 -48 -8 -80 -8 -33 0 -64 -1 -70 -2 -5 -1 -14 -2
-19 -1 -5 1 -16 -1 -25 -5 -9 -4 -25 -9 -35 -11 -11 -2 -25 -8 -31 -13 -7 -6
-24 -11 -39 -12 -14 -1 -26 -6 -26 -10 0 -4 -9 -8 -20 -8 -11 0 -20 -4 -20
-10 0 -5 -5 -10 -12 -10 -10 0 -138 -126 -185 -182 -24 -30 -46 -68 -39 -68 3
0 -3 -19 -13 -42 -33 -79 -35 -151 -6 -293 10 -50 13 -105 4 -100 -4 3 -10 1
-14 -5 -4 -6 -9 -8 -13 -6 -4 2 -13 -2 -20 -10 -7 -8 -11 -14 -8 -14 3 0 -1
-18 -9 -40 -13 -38 -10 -110 5 -110 4 0 7 -6 7 -12 1 -36 16 -104 25 -115 5
-7 7 -16 4 -21 -7 -11 13 -72 22 -71 30 5 51 -4 57 -23 4 -13 7 -26 6 -30 -1
-5 3 -8 8 -8 8 0 20 -38 27 -85 1 -11 6 -32 9 -47 6 -23 -1 -35 -56 -91 -67
-67 -82 -73 -201 -80 -16 -1 -28 -5 -28 -10 0 -5 -7 -7 -15 -4 -8 4 -17 1 -21
-4 -3 -6 -17 -9 -30 -6 -13 2 -24 0 -24 -4 0 -8 -76 -26 -92 -21 -5 1 -8 -3
-8 -10 0 -6 -3 -9 -6 -5 -4 3 -18 0 -33 -7 -14 -6 -38 -12 -53 -11 -15 0 -24
-3 -21 -7 2 -5 -8 -6 -23 -2 -19 5 -25 4 -20 -5 5 -8 -2 -11 -21 -11 -15 1
-48 -4 -73 -10 -25 -6 -52 -12 -60 -14 -8 -2 -22 -6 -30 -9 -8 -3 -33 -8 -54
-11 -45 -6 -105 -61 -112 -103 -3 -14 -11 -38 -19 -53 -8 -15 -12 -30 -9 -33
3 -3 -3 -8 -14 -11 -22 -7 -42 -41 -46 -77 -4 -32 -28 -89 -38 -89 -5 0 -8 -7
-8 -14 0 -8 -17 -43 -37 -78 -21 -35 -38 -65 -38 -68 0 -3 -8 -16 -16 -30 -9
-14 -23 -40 -30 -57 -8 -18 -18 -33 -22 -33 -5 0 -5 -4 -2 -10 3 -5 1 -10 -5
-10 -6 0 -9 -4 -6 -9 4 -5 2 -11 -3 -13 -8 -3 -90 -171 -94 -193 -1 -5 -4 -12
-7 -15 -18 -18 -51 -74 -71 -121 -13 -30 -28 -57 -33 -61 -7 -5 -7 -8 -1 -8 6
0 4 -4 -2 -8 -7 -4 -14 -17 -16 -27 -3 -22 -46 -107 -56 -115 -4 -3 -18 -32
-31 -65 -13 -33 -28 -63 -33 -66 -4 -3 -10 -12 -11 -20 -2 -8 -11 -31 -20 -53
-10 -21 -20 -59 -22 -85 -3 -25 -8 -53 -11 -61 -3 -8 -7 -28 -10 -45 -3 -16
-9 -32 -13 -35 -5 -3 -12 -28 -15 -55 -4 -28 -8 -57 -11 -66 -7 -25 -27 -207
-26 -239 0 -8 -2 -22 -5 -30 -14 -35 -17 -105 -10 -188 3 -28 2 -54 -2 -56 -5
-4 -7 -221 -1 -221 1 0 2 -53 3 -117 1 -65 6 -118 10 -118 5 0 6 -4 3 -9 -3
-5 -8 -61 -11 -124 -5 -126 0 -140 50 -153 25 -6 43 -36 26 -42 -6 -2 -8 -8
-5 -13 3 -6 1 -16 -5 -22 -5 -7 -10 -22 -9 -32 1 -11 -2 -42 -7 -70 -13 -87
-13 -119 1 -152 7 -18 16 -33 19 -33 3 0 3 6 0 13 -4 6 2 1 13 -13 11 -13 19
-27 16 -31 -2 -4 3 -10 12 -13 8 -3 12 -11 9 -16 -4 -6 -1 -9 7 -8 7 2 12 -4
10 -12 -2 -8 -1 -12 3 -8 10 9 45 -24 38 -35 -3 -6 -2 -7 4 -4 20 12 111 -31
97 -46 -3 -3 5 -3 18 0 22 6 22 5 7 -13 -8 -10 -21 -30 -27 -44 -14 -28 -24
-44 -66 -109 -33 -52 -57 -105 -59 -135 -3 -29 -17 -48 -50 -69 -15 -10 -31
-26 -34 -35 -10 -26 -32 -45 -112 -91 -42 -25 -106 -76 -151 -122 -45 -45 -90
-81 -106 -85 -16 -4 -39 -14 -51 -21 -12 -8 -27 -11 -34 -7 -7 4 -25 7 -41 6
-15 0 -26 4 -23 9 4 5 -6 9 -22 9 -22 0 -25 -2 -13 -10 11 -7 5 -10 -22 -10
-47 0 -76 -35 -58 -70 6 -11 15 -18 21 -15 5 4 9 2 9 -2 0 -5 16 -9 35 -9 19
0 35 4 35 8 0 4 7 8 16 8 12 0 10 -5 -9 -20 -14 -11 -30 -20 -35 -20 -5 0 -17
-11 -26 -25 -9 -13 -31 -32 -49 -41 -17 -10 -36 -23 -42 -30 -5 -7 -28 -21
-49 -33 -22 -11 -42 -24 -45 -28 -6 -8 -27 -20 -122 -70 -25 -13 -61 -38 -79
-54 -18 -17 -57 -44 -87 -61 -61 -35 -103 -95 -103 -149 0 -51 44 -113 168
-236 164 -163 276 -215 449 -210 62 2 85 7 109 24 31 22 114 135 114 155 0 6
3 8 7 5 3 -4 13 -1 22 7 9 8 21 16 26 18 6 2 9 7 7 11 -1 5 2 6 7 3 13 -8 83
53 75 65 -3 5 2 9 10 9 9 0 13 6 10 14 -3 8 0 17 7 22 8 5 10 3 4 -7 -7 -11
-5 -11 9 1 12 9 14 16 6 18 -8 3 -6 10 6 23 9 10 21 16 25 13 5 -3 9 1 9 9 0
8 9 25 21 38 11 13 17 17 13 9 -5 -10 0 -9 14 4 26 23 28 28 7 19 -11 -4 -7 9
12 40 15 25 31 43 35 40 4 -2 5 2 2 10 -10 28 53 126 71 109 5 -4 5 -2 2 4 -4
7 2 23 13 35 11 13 19 18 20 12 0 -7 -3 -13 -7 -13 -5 0 -9 -30 -11 -68 -1
-37 -5 -78 -8 -92 -4 -14 -8 -43 -10 -65 -2 -22 -6 -56 -9 -75 -3 -19 -7 -54
-10 -76 -2 -23 -6 -61 -9 -85 -3 -24 -8 -71 -11 -104 -4 -33 -11 -91 -16 -130
-14 -102 -46 -404 -64 -600 -9 -93 -27 -215 -40 -270 -34 -140 -38 -176 -23
-205 25 -47 145 -53 169 -8 6 11 13 55 15 97 8 179 35 451 63 658 6 38 11 106
12 151 2 46 8 90 14 98 11 15 70 19 194 11 l85 -5 4 -129 c6 -208 6 -583 0
-658 -3 -38 -2 -78 3 -87 14 -25 53 -49 91 -55 18 -3 36 -10 39 -15 4 -6 12
-7 19 -3 9 6 11 -12 6 -76 -4 -46 -7 -88 -8 -94 0 -5 2 -24 6 -42 6 -26 4 -32
-13 -38 -12 -3 -21 -11 -21 -16 0 -5 -8 -13 -17 -16 -26 -10 -173 -162 -173
-179 0 -21 9 -18 51 21 33 29 43 34 71 28 18 -3 34 -7 36 -8 4 -3 -25 -69 -35
-78 -4 -5 -8 -12 -9 -15 -3 -20 -38 -87 -55 -106 -12 -11 -29 -37 -39 -56 -10
-19 -41 -66 -69 -103 -65 -86 -82 -121 -115 -228 -31 -105 -32 -135 -3 -219
24 -71 36 -81 142 -115 113 -38 338 -39 382 -3 7 5 18 6 24 2 8 -5 9 -3 4 6
-6 10 -4 12 11 6 10 -4 15 -4 11 0 -4 4 22 24 57 45 122 74 169 153 149 252
-16 81 16 137 79 137 31 0 142 90 157 128 16 39 8 325 -13 452 -16 99 -29 138
-56 180 -14 22 -18 49 -12 98 1 6 10 12 20 12 22 1 66 34 68 52 0 7 2 35 2 61
1 27 5 46 10 44 4 -3 8 18 9 46 1 29 4 90 7 137 5 72 8 97 21 140 8 27 26 119
24 126 -1 5 0 11 1 14 6 16 11 53 15 113 2 37 7 72 11 79 5 7 2 8 -7 3 -10 -6
-11 -5 -3 4 6 7 9 33 6 61 l-4 49 33 -4 c41 -5 272 -19 789 -45 366 -19 575
-35 603 -46 10 -3 11 -25 5 -97 -5 -50 -9 -120 -11 -154 -2 -35 -6 -65 -9 -68
-3 -3 -4 -28 -2 -56 3 -28 1 -48 -4 -45 -4 2 -6 -24 -4 -60 2 -35 0 -64 -5
-64 -4 0 -7 -28 -5 -62 2 -42 -1 -64 -10 -70 -8 -6 -9 -11 -2 -14 7 -3 7 -24
2 -67 -5 -34 -9 -75 -8 -90 0 -16 -3 -34 -7 -40 -8 -13 -11 -23 -18 -75 -3
-18 -10 -42 -15 -52 -14 -26 -13 -66 3 -78 18 -14 143 -10 159 6 10 10 13 59
14 190 0 97 3 213 7 257 4 44 10 114 12 155 8 120 16 204 19 207 2 2 23 -1 47
-6 63 -15 174 -14 187 1 16 20 20 137 5 131 -10 -4 -13 29 -14 143 -1 82 -2
178 -4 214 -6 154 -6 930 1 941 4 8 3 9 -5 5 -8 -5 -10 59 -9 258 2 146 0 266
-4 266 -13 0 -9 135 5 149 9 11 9 13 0 7 -10 -5 -13 7 -13 47 0 29 3 56 6 60
4 3 7 74 9 157 1 82 4 153 8 156 3 3 1 20 -5 37 -11 34 -11 80 -2 111 4 11 2
16 -4 12 -18 -11 -21 23 -11 126 6 57 10 118 9 136 0 18 2 38 6 43 3 6 8 54 9
107 2 54 6 138 9 187 4 50 6 115 6 145 0 35 3 50 9 41 5 -8 8 16 6 64 l-2 76
65 30 c35 16 69 26 75 22 5 -3 7 -2 4 3 -3 5 27 26 67 47 40 20 92 54 116 75
24 20 45 35 46 32 1 -3 6 -1 11 4 5 5 3 6 -4 2 -17 -9 -16 4 1 26 7 10 17 14
21 10 5 -4 5 -2 1 5 -9 16 14 64 27 56 6 -3 7 -1 3 6 -10 16 3 53 16 45 7 -4
8 -2 4 4 -4 6 -4 23 0 37 5 20 9 24 16 13 5 -8 6 -2 2 16 -4 16 -3 27 2 23 5
-3 9 17 9 43 0 27 -4 46 -9 42 -5 -3 -7 2 -3 10 3 9 -1 25 -10 37 -8 12 -12
29 -9 37 3 9 1 12 -4 9 -6 -3 -10 5 -10 19 0 14 4 27 8 30 4 2 4 48 -2 101 -7
79 -6 99 5 106 12 7 12 9 0 9 -9 0 -12 9 -9 29 2 17 1 28 -3 25 -9 -5 -18 54
-19 116 -1 65 -4 89 -10 85 -3 -2 -5 30 -4 71 0 41 -3 74 -9 74 -5 0 -7 20 -5
45 2 25 -1 45 -5 45 -5 0 -7 10 -6 23 1 12 -1 30 -6 40 -4 9 -5 23 -2 31 3 8
1 16 -4 18 -5 2 -11 24 -12 51 -1 26 -6 47 -10 47 -5 0 -7 8 -6 18 2 16 -2 29
-22 80 -11 28 -12 65 -1 58 8 -5 -1 118 -13 182 -5 26 -3 32 7 27 7 -3 5 0 -5
8 -10 9 -20 23 -21 33 -1 9 -20 24 -42 32 -21 9 -40 19 -42 23 -2 4 -9 6 -16
3 -7 -3 -28 6 -47 19 -19 13 -40 22 -47 19 -7 -2 -12 1 -12 7 0 6 -11 11 -25
11 -14 0 -25 4 -25 9 0 5 -12 9 -27 9 -15 0 -29 4 -31 10 -2 6 -10 8 -18 5 -8
-3 -14 -1 -14 4 0 5 -9 9 -20 10 -10 1 -34 8 -52 17 -18 8 -43 17 -56 21 -12
4 -19 11 -16 17 4 7 2 8 -4 4 -6 -4 -31 3 -54 16 -24 12 -45 23 -48 23 -45 12
-59 19 -53 28 3 6 1 7 -6 3 -13 -9 -108 21 -117 36 -5 7 -2 8 6 3 9 -5 11 -4
6 4 -4 6 -11 9 -15 6 -10 -5 -43 29 -36 37 3 3 -3 11 -12 19 -16 12 -17 12 -8
-1 6 -9 0 -4 -12 10 -13 14 -23 30 -23 37 0 7 -13 28 -30 46 -29 33 -30 37
-20 87 9 49 26 120 35 146 2 7 20 8 52 4 43 -5 49 -4 50 13 2 15 -3 18 -19 14
-11 -3 -31 -1 -45 4 -21 8 -24 13 -18 37 4 15 10 50 14 77 6 53 19 62 36 26
13 -28 29 -21 33 15 2 21 -4 36 -22 53 -24 22 -24 25 -10 52 16 32 35 37 58
13 17 -16 19 -27 17 -84 -1 -33 -1 -34 14 -16 20 26 20 115 -1 144 -21 30 -37
28 -67 -8 -30 -35 -37 -37 -37 -12 0 17 55 74 64 65 2 -3 3 7 2 21 -2 14 3 31
10 37 8 6 14 22 14 35 0 13 4 24 8 24 7 0 12 19 15 62 1 9 4 15 8 13 9 -6 5
168 -4 183 -5 6 -5 12 -1 12 3 0 1 7 -6 15 -7 8 -9 15 -4 15 5 0 3 4 -4 8 -7
5 -15 19 -17 33 -12 65 -19 86 -34 109 -24 37 -44 60 -54 60 -4 0 -23 16 -42
35 -19 19 -35 32 -35 29 0 -3 -12 4 -27 16 -16 12 -41 28 -58 36 -35 16 -63
34 -83 52 -7 6 -16 12 -18 12 -3 0 -2 -6 2 -12 6 -10 4 -10 -7 -2 -8 6 -21 11
-29 11 -8 0 -24 2 -35 6 -11 3 -29 2 -40 -3z m174 -301 c37 -11 46 -19 62 -57
11 -24 19 -54 19 -67 0 -13 4 -26 9 -29 4 -3 8 -24 8 -47 0 -23 5 -44 10 -48
17 -11 43 -102 43 -149 0 -25 5 -74 11 -109 7 -42 8 -67 1 -76 -5 -6 -15 -28
-20 -47 -6 -19 -18 -54 -26 -77 -8 -22 -16 -58 -17 -80 -1 -21 -8 -52 -15 -69
-14 -32 -42 -62 -53 -56 -29 18 -41 21 -45 13 -6 -10 -56 -2 -73 11 -7 6 -15
25 -19 43 -7 41 -36 69 -61 61 -12 -4 -32 3 -52 18 -18 13 -45 29 -61 36 -21
9 -27 17 -25 36 4 36 11 39 51 25 31 -11 38 -11 51 2 12 12 13 18 2 36 -13 20
-85 51 -118 51 -32 0 -40 33 -20 76 10 21 18 48 19 58 0 25 28 56 50 56 9 0
34 -19 55 -41 36 -37 88 -69 113 -69 5 0 19 9 31 19 17 15 33 19 71 15 52 -5
65 4 55 35 -6 21 -71 51 -109 51 -31 0 -53 25 -30 34 37 14 84 5 127 -24 53
-35 57 -36 57 -11 0 23 -31 63 -71 91 -26 19 -43 22 -152 21 -67 0 -141 -1
-165 -2 -32 -1 -53 6 -85 27 -23 16 -44 29 -46 31 -2 1 7 16 19 32 15 22 30
31 48 31 26 0 27 2 25 52 -2 46 1 56 24 76 15 12 38 25 52 28 14 3 31 8 36 10
20 8 171 -4 214 -17z m-224 -829 c3 -5 15 -10 26 -10 26 0 69 -43 69 -70 0
-14 -7 -20 -22 -20 -21 0 -21 -2 10 -28 l33 -28 -24 -26 c-21 -22 -31 -26 -74
-23 -67 4 -88 11 -107 40 -9 14 -23 25 -31 25 -20 0 -30 21 -14 31 8 5 40 11
71 15 l57 6 -14 28 c-13 25 -36 38 -115 64 -8 2 17 5 57 5 39 1 75 -3 78 -9z
m335 -333 c0 -28 -37 -95 -96 -174 -29 -39 -74 -109 -99 -155 -26 -46 -50 -87
-54 -91 -15 -15 -43 7 -83 67 -22 33 -52 73 -66 88 -14 15 -23 30 -21 33 3 2
61 36 130 74 201 112 230 132 252 168 20 35 36 31 37 -10z m-560 -223 c8 -8 3
-13 -18 -17 -16 -3 -45 -23 -63 -43 -19 -20 -47 -48 -63 -63 -41 -37 -66 -64
-63 -67 2 -2 20 2 41 8 34 11 40 10 51 -6 8 -10 17 -35 20 -57 6 -34 0 -52
-48 -146 -71 -140 -136 -356 -137 -456 -1 -52 -14 -15 -54 148 -21 89 -36 174
-36 210 1 59 52 340 65 353 12 12 26 -23 21 -56 -3 -23 -1 -35 10 -39 19 -7
57 26 45 41 -4 6 -11 32 -14 58 -5 37 -3 46 8 44 8 -1 17 -5 21 -8 3 -4 12 -4
19 -2 7 3 16 1 19 -5 11 -17 49 6 69 41 13 23 15 34 6 44 -6 7 -9 17 -6 21 8
12 95 9 107 -3z m189 -215 c17 -6 36 -20 42 -30 5 -10 16 -19 24 -19 8 0 15
-3 15 -7 0 -5 -29 -62 -65 -128 -70 -128 -107 -203 -149 -300 -32 -76 -33 -57
-1 75 40 164 58 299 46 351 -9 37 -8 46 6 57 21 15 41 15 82 1z m-91 -1536
l37 -16 -30 -7 c-16 -3 -38 -2 -49 3 -21 11 -66 -6 -66 -24 0 -7 -8 -21 -17
-32 -17 -19 -17 -19 7 -12 14 4 60 18 102 32 88 30 112 25 170 -31 18 -17 47
-38 64 -45 18 -7 40 -20 50 -30 25 -22 104 -63 104 -53 0 5 -7 17 -15 28 -17
22 -19 50 -5 59 5 3 29 -5 52 -17 70 -39 129 -179 81 -194 -10 -3 -27 -10 -38
-16 -35 -19 -95 -11 -121 17 -23 25 -33 29 -65 26 -8 -1 -24 8 -34 19 -24 26
-39 26 -32 -1 9 -32 -1 -47 -49 -75 -35 -20 -47 -23 -63 -14 -12 6 -21 13 -21
17 0 9 101 103 111 103 5 0 9 7 9 15 0 8 7 15 16 15 9 0 12 -5 8 -12 -5 -8 -1
-7 10 1 17 14 17 16 -1 29 -14 10 -38 12 -104 7 -58 -4 -89 -3 -94 4 -3 6 -11
9 -16 6 -12 -8 -12 8 1 21 8 8 6 15 -5 24 -14 11 -27 10 -87 -9 -61 -20 -74
-21 -95 -10 -19 10 -23 18 -18 37 5 20 3 23 -10 18 -9 -3 -28 -9 -41 -12 -23
-6 -23 -6 -8 25 19 38 48 59 94 67 19 4 49 17 65 30 36 28 53 29 103 7z
m-1359 -396 c12 -9 13 -9 7 0 -5 9 -2 11 9 7 14 -6 14 -8 -1 -25 -9 -11 -14
-19 -10 -19 6 0 -70 -117 -85 -130 -3 -3 -13 -19 -21 -36 -18 -37 -9 -60 18
-50 13 5 16 4 9 -3 -6 -6 -22 -12 -35 -13 -14 -2 -31 -10 -38 -18 -10 -12 -11
-1 -6 60 4 41 13 81 21 88 15 16 17 26 3 17 -6 -3 -10 4 -10 17 0 17 3 19 9 9
5 -8 7 11 4 50 l-5 64 58 -3 c33 -2 65 -9 73 -15z m2161 -1537 c0 -21 -27 -68
-64 -113 -30 -36 -37 -50 -28 -59 7 -7 8 -16 2 -23 -5 -6 -10 -32 -11 -58 -2
-26 -8 -52 -13 -57 -8 -6 -10 13 -8 61 l4 70 -24 -13 c-12 -7 -27 -19 -31 -25
-5 -8 -27 -12 -55 -12 -28 1 -37 4 -22 6 14 3 28 9 31 14 3 5 21 18 40 28 23
12 35 27 37 45 2 14 7 26 12 26 19 0 40 32 34 53 -4 19 2 26 38 44 49 25 58
27 58 13z m50 -208 c0 -10 -3 -22 -7 -25 -3 -4 -7 -44 -9 -89 -2 -46 -5 -114
-8 -153 -7 -99 -14 -205 -21 -310 -3 -49 -7 -108 -10 -130 -2 -22 -5 -75 -7
-117 -1 -43 -6 -78 -10 -78 -4 0 -8 -5 -8 -11 0 -5 4 -8 9 -5 5 4 7 -3 4 -14
-5 -17 -14 -20 -60 -20 -41 0 -52 3 -47 13 6 9 4 9 -7 1 -8 -5 -18 -10 -24 -9
-53 6 -267 18 -290 17 -16 -2 -36 1 -45 5 -8 4 -60 8 -115 9 -55 1 -136 4
-180 7 -44 3 -145 8 -225 12 -80 3 -163 8 -185 10 -43 5 -193 16 -237 17 -17
1 -28 6 -28 15 0 8 4 12 8 9 5 -3 6 8 4 25 -2 16 0 29 4 29 5 0 10 46 12 103
3 98 24 183 42 172 5 -3 6 5 2 17 -3 14 -1 19 6 14 8 -4 10 -2 6 7 -3 8 4 51
16 95 24 95 26 116 16 159 -6 25 -4 32 6 28 21 -7 175 -16 283 -17 68 0 94 -3
80 -9 -13 -6 18 -7 83 -3 71 4 102 3 102 -5 0 -6 10 -11 23 -11 18 0 19 2 7
10 -11 7 -8 10 16 10 17 0 34 -3 38 -7 8 -9 325 -7 349 2 9 4 33 5 51 3 20 -2
32 0 29 5 -3 6 8 8 25 5 17 -2 29 -2 27 2 -2 4 19 15 46 25 28 9 53 24 56 31
3 8 9 14 15 14 5 0 6 -4 3 -10 -11 -18 1 -11 21 12 10 12 13 18 7 14 -18 -10
-16 0 4 32 18 28 53 58 64 55 4 -1 6 5 5 15 0 9 8 18 19 20 17 3 18 1 5 -8
-13 -10 -13 -11 0 -7 8 2 14 11 12 21 -2 9 2 16 8 16 5 0 10 -8 10 -18z
m-2447 -615 c-9 -260 -9 -297 0 -574 7 -227 7 -232 -13 -238 -11 -3 -28 -4
-37 -1 -10 3 -58 7 -107 11 -48 3 -92 8 -96 10 -5 3 -5 18 -1 33 5 15 9 50 10
77 1 28 4 73 7 100 3 28 5 57 6 65 0 8 7 71 15 140 9 69 15 137 14 153 -1 15
2 27 6 27 5 0 6 21 4 46 -2 26 1 44 5 41 5 -3 7 17 6 44 -3 33 0 49 8 49 7 0
9 8 5 21 -12 35 3 66 40 83 19 9 53 41 77 71 23 29 46 51 50 49 5 -3 5 -96 1
-207z m1437 -387 c616 -31 769 -39 858 -46 79 -6 82 -7 76 -28 -4 -11 -7 -54
-6 -95 0 -47 -3 -69 -9 -60 -5 9 -9 10 -9 2 0 -6 4 -14 8 -17 5 -3 6 -29 2
-58 -3 -29 -5 -68 -5 -85 0 -18 -3 -33 -6 -33 -3 0 -4 -22 -1 -49 2 -28 2 -61
-2 -74 -5 -23 -8 -24 -101 -23 -52 1 -95 -2 -95 -6 0 -3 -9 -4 -20 -1 -11 3
-20 9 -20 14 0 4 -12 8 -27 7 -51 -2 -327 14 -368 21 -22 4 -69 6 -105 4 -45
-2 -60 0 -50 7 10 7 -15 9 -78 5 -52 -3 -98 -2 -103 1 -5 3 -67 8 -137 10 -70
3 -140 7 -157 8 -16 2 -63 4 -102 4 l-73 2 0 64 c0 36 4 67 9 70 5 3 7 15 4
26 -9 33 8 314 18 299 5 -9 6 1 2 24 l-6 37 54 -5 c30 -3 232 -14 449 -25z
m1087 -58 c10 -6 13 -107 15 -430 3 -474 5 -461 -66 -448 -31 6 -35 10 -32 29
3 12 8 74 11 137 4 63 15 223 26 355 10 132 19 268 19 303 0 62 4 69 27 54z"/>
</g>
</svg>
